<?xml version="1.0" encoding="UTF-8" standalone="no" ?>
<!DOCTYPE svg PUBLIC "-//W3C//DTD SVG 1.1//EN" "http://www.w3.org/Graphics/SVG/1.1/DTD/svg11.dtd">
<svg xmlns="http://www.w3.org/2000/svg" xmlns:xlink="http://www.w3.org/1999/xlink" version="1.1" width="7468" height="2760" viewBox="0 0 7468 2760" xml:space="preserve">
<desc>Created with Fabric.js 4.6.0</desc>
<defs>
</defs>
<g transform="matrix(1 0 0 1 432.26 314.88)" id="ufRj7_nTDB6cb49uCUhyF"  >
<linearGradient id="SVGID_0" gradientUnits="userSpaceOnUse" gradientTransform="matrix(1440 0 0 -439 401481 509720)"  x1="-278.4048" y1="1161.0934" x2="-278.4048" y2="1160.3888">
<stop offset="0%" style="stop-color:rgb(83,95,215);stop-opacity: 0.08"/>
<stop offset="100%" style="stop-color:rgb(249,249,249);stop-opacity: 0"/>
</linearGradient>
<path style="stroke: none; stroke-width: 1; stroke-dasharray: none; stroke-linecap: butt; stroke-dashoffset: 0; stroke-linejoin: miter; stroke-miterlimit: 4; fill: url(#SVGID_0); fill-rule: evenodd; opacity: 1; visibility: hidden;" vector-effect="non-scaling-stroke"  transform=" translate(-578, -219.5)" d="M -142 0 L 1298 0 L 1298 439 L -142 439 L -142 0 z" stroke-linecap="round" />
</g>
<g transform="matrix(1 0 0 1 302.01 102.13)" id="ZbKYkuUhuynWF5S2e4KkK"  >
<linearGradient id="SVGID_1" gradientUnits="userSpaceOnUse" gradientTransform="matrix(455.55 0 0 -305.49 127181.45 354306.34)"  x1="-277.7104" y1="1159.7601" x2="-278.6881" y2="1159.7601">
<stop offset="0%" style="stop-color:rgb(255,255,255);stop-opacity: 1"/>
<stop offset="100%" style="stop-color:rgb(255,255,255);stop-opacity: 0"/>
</linearGradient>
<path style="stroke: none; stroke-width: 1; stroke-dasharray: none; stroke-linecap: butt; stroke-dashoffset: 0; stroke-linejoin: miter; stroke-miterlimit: 4; fill: url(#SVGID_1); fill-rule: evenodd; opacity: 1; visibility: hidden;" vector-effect="non-scaling-stroke"  transform=" translate(-447.75, -6.75)" d="M 359 132 C 381.7 72.2 487.2 25.9 675.5 -7 C 515.7 -99.7 410.2 -146 359 -146 C 282.2 -146 220 -83.8 220 -7 C 220 69.8 324.9 221.7 359 132 z" stroke-linecap="round" />
</g>
<g transform="matrix(1 0 0 1 -143.03 74.73)" id="CLDEv3Fcmt4qGdk6JpVSM"  >
<linearGradient id="SVGID_2" gradientUnits="userSpaceOnUse" gradientTransform="matrix(-317.13 -90.93 -85.81 299.24 11291.91 -374051.19)"  x1="-279.1096" y1="1164.9633" x2="-280.0874" y2="1164.9633">
<stop offset="0%" style="stop-color:rgb(255,255,255);stop-opacity: 1"/>
<stop offset="100%" style="stop-color:rgb(255,255,255);stop-opacity: 0"/>
</linearGradient>
<path style="stroke: none; stroke-width: 1; stroke-dasharray: none; stroke-linecap: butt; stroke-dashoffset: 0; stroke-linejoin: miter; stroke-miterlimit: 4; fill: url(#SVGID_2); fill-rule: evenodd; opacity: 1; visibility: hidden;" vector-effect="non-scaling-stroke"  transform=" translate(-2.71, 20.65)" d="M 58.5 -133.5 C 70.9 -244.9 -259 -136 -113.5 -38.2 C 32.1 59.7 -92 112.6 -18.2 133.8 C 55.6 155.00000000000003 132.60000000000002 112.30000000000001 153.70000000000002 38.500000000000014 C 174.9 -35.3 46 -22 58.5 -133.5 z" stroke-linecap="round" />
</g>
<g transform="matrix(9.12 0 0 9.12 8478.16 699.58)" id="Cdv19U64JFiaNu-ehzCcP"  >
<linearGradient id="SVGID_3" gradientUnits="userSpaceOnUse" gradientTransform="matrix(430.23 0 0 -437.5 495206.75 604771.44)"  x1="-1150.1815" y1="1382.0869" x2="-1150.1815" y2="1381.0869">
<stop offset="0%" style="stop-color:rgb(255,188,72);stop-opacity: 1"/>
<stop offset="100%" style="stop-color:rgb(255,188,72);stop-opacity: 0.48"/>
</linearGradient>
<path style="stroke: none; stroke-width: 1; stroke-dasharray: none; stroke-linecap: butt; stroke-dashoffset: 0; stroke-linejoin: miter; stroke-miterlimit: 4; fill: url(#SVGID_3); fill-rule: evenodd; opacity: 1;" vector-effect="non-scaling-stroke"  transform=" translate(-360.88, -326.75)" d="M 366 528 C 551.3 600 576 434 576 318 C 576 202 482 108 366 108 C 250 108 193 209 156 318 C 119 427 180.7 456 366 528 z" stroke-linecap="round" />
</g>
<g transform="matrix(9.12 0 0 9.12 8525.23 619.08)" id="kRPk1JN5GXcjLQl9g-Qqr"  >
<linearGradient id="SVGID_4" gradientUnits="userSpaceOnUse" gradientTransform="matrix(240 0 0 -240 276103 331323)"  x1="-1149.9292" y1="1380.5125" x2="-1149.9292" y2="1379.5125">
<stop offset="0%" style="stop-color:rgb(254,126,31);stop-opacity: 1"/>
<stop offset="100%" style="stop-color:rgb(254,126,31);stop-opacity: 0"/>
</linearGradient>
<path style="stroke: none; stroke-width: 1; stroke-dasharray: none; stroke-linecap: butt; stroke-dashoffset: 0; stroke-linejoin: miter; stroke-miterlimit: 4; fill: url(#SVGID_4); fill-rule: nonzero; opacity: 1;" vector-effect="non-scaling-stroke"  transform=" translate(-120, -120)" d="M 0 120 C 0 53.72583 53.72583 0 120 0 C 186.27417 0 240 53.72583 240 120 C 240 186.27417 186.27417 240 120 240 C 53.72583 240 0 186.27417 0 120 z" stroke-linecap="round" />
</g>
<g transform="matrix(9.12 0 0 9.12 6248.48 -382.59)" id="9ErbdCuaAWZHS8VD3YqfI"  >
<linearGradient id="SVGID_6" gradientUnits="userSpaceOnUse" gradientTransform="matrix(1 0 0 1 -142 26.09)"  x1="-1150.2087" y1="1380.4636" x2="-1150.2087" y2="1379.4636">
<stop offset="0%" style="stop-color:rgb(255,188,72);stop-opacity: 1"/>
<stop offset="100%" style="stop-color:rgb(255,188,72);stop-opacity: 0.48"/>
</linearGradient>
<path style="stroke: none; stroke-width: 1; stroke-dasharray: none; stroke-linecap: butt; stroke-dashoffset: 0; stroke-linejoin: miter; stroke-miterlimit: 4; fill: url(#SVGID_6); fill-rule: evenodd; opacity: 1;" vector-effect="non-scaling-stroke"  transform=" translate(-93.18, -144.72)" d="M 0.2 251.6 C -0.7 252 -1.8 252.29999999999998 -2.9 252.6 C -4.1 252.9 -5.3 253.1 -6.5 253.29999999999998 C -9 253.7 -11.6 253.89999999999998 -14 253.99999999999997 C -16.4 254.09999999999997 -18.6 253.99999999999997 -20.2 253.89999999999998 C -20.5 252.59999999999997 -19.7 252.7 -19.099999999999998 252.59999999999997 C -18.499999999999996 252.49999999999997 -17.9 252.29999999999995 -18.7 250.39999999999998 C -17.4 251.2 -17.3 254.59999999999997 -15 253.09999999999997 C -15 250.79999999999995 -16.2 251.19999999999996 -17.2 251.19999999999996 C -16.2 249.09999999999997 -14.899999999999999 249.89999999999995 -13.5 250.69999999999996 C -12.2 251.39999999999995 -10.9 252.09999999999997 -9.9 250.49999999999997 C -9.8 250.39999999999998 -9.700000000000001 250.19999999999996 -9.6 249.99999999999997 C -9.7 250.19999999999996 -9.799999999999999 250.29999999999998 -9.9 250.49999999999997 C -10.6 251.89999999999998 -9 251.69999999999996 -6.4 250.99999999999997 C -3.6000000000000005 250.19999999999996 0.39999999999999947 248.79999999999998 3.799999999999999 248.49999999999997 C 3.4 249.8 2 250.8 0.2 251.6 M -77.1 220.1 C -77.6 220.6 -79.3 220.5 -80.6 218.5 C -81.39999999999999 219.2 -82.39999999999999 219.2 -83.5 218.9 C -83.1 218.1 -82.6 218 -82.3 217 C -82.8 216.7 -83 217.2 -83.2 217.9 C -84.8 214.6 -79.9 216.1 -80.60000000000001 218.6 C -77.3 218.6 -76.6 219.6 -77.1 220.1 M -86.6 222.5 C -85.39999999999999 220.5 -81.6 222.7 -81.19999999999999 223.9 C -83.1 225.4 -83.8 223.4 -86.6 222.5 M 327.9 92.5 C 327.5 88.5 326.7 84.5 325.7 80.6 C 325.5 79.8 325.3 79.1 325 78.3 C 324.5 76.8 324 75.2 323.5 73.8 C 322.9 72.3 322.4 70.8 321.7 69.39999999999999 C 321.09999999999997 67.89999999999999 320.4 66.49999999999999 319.59999999999997 65.1 C 318.09999999999997 62.199999999999996 316.49999999999994 59.49999999999999 314.59999999999997 56.8 C 310.7 51.099999999999994 306.09999999999997 45.9 300.9 41.4 C 299.2 39.9 297.5 38.6 295.7 37.3 L 295 36.8 L 294.4 36.4 L 293.2 35.6 C 292.4 35.1 291.5 34.6 290.7 34.1 C 287.5 32.300000000000004 284.09999999999997 30.700000000000003 280.59999999999997 29.5 C 273.79999999999995 27.1 267.2 26.2 261.09999999999997 26.1 C 254.99999999999997 26 249.29999999999995 26.700000000000003 244.19999999999996 27.8 C 239.09999999999997 28.900000000000002 234.39999999999995 30.2 230.19999999999996 31.5 C 229.09999999999997 31.8 228.09999999999997 32.2 226.99999999999997 32.6 C 225.99999999999997 33 224.99999999999997 33.5 223.99999999999997 34 C 222.09999999999997 35 220.19999999999996 36.2 218.39999999999998 37.4 C 214.79999999999998 39.8 211.29999999999998 42.699999999999996 208.09999999999997 45.599999999999994 C 201.69999999999996 51.39999999999999 196.09999999999997 57.39999999999999 191.19999999999996 61.099999999999994 C 190.59999999999997 61.49999999999999 189.99999999999997 59.39999999999999 188.89999999999995 59.99999999999999 C 186.09999999999994 61.49999999999999 183.19999999999996 65 180.49999999999994 68.6 C 177.79999999999995 72.3 175.29999999999995 76 173.19999999999993 77.8 C 170.69999999999993 77.39999999999999 169.49999999999994 80.1 168.29999999999993 82.3 C 167.09999999999994 84.39999999999999 166.09999999999994 86 163.69999999999993 83.1 C 162.79999999999993 84.89999999999999 161.79999999999993 86.6 160.69999999999993 88.3 C 159.59999999999994 89.89999999999999 158.59999999999994 91.39999999999999 157.39999999999992 92.7 C 156.29999999999993 94.10000000000001 155.0999999999999 95.3 153.89999999999992 96.5 C 152.79999999999993 97.6 151.5999999999999 98.7 150.29999999999993 99.8 C 149.69999999999993 100.3 149.09999999999994 100.8 148.49999999999991 101.2 C 147.89999999999992 101.7 147.29999999999993 102.10000000000001 146.6999999999999 102.60000000000001 C 145.49999999999991 103.50000000000001 144.2999999999999 104.30000000000001 143.0999999999999 105.10000000000001 C 141.89999999999992 105.9 140.6999999999999 106.7 139.5999999999999 107.4 L 136.2999999999999 109.60000000000001 C 136.4999999999999 112.30000000000001 138.7999999999999 114.30000000000001 137.7999999999999 114.7 C 136.3999999999999 115.7 135.5999999999999 111.4 134.1999999999999 112.5 C 134.2999999999999 115 136.49999999999991 116 135.49999999999991 116.6 C 134.89999999999992 115.5 134.29999999999993 114.39999999999999 133.5999999999999 113.8 C 133.99999999999991 115.6 135.0999999999999 116.2 134.5999999999999 116.89999999999999 C 134.1999999999999 116.99999999999999 134.39999999999992 117.89999999999999 134.0999999999999 118.19999999999999 C 133.2999999999999 117.79999999999998 132.6999999999999 114.29999999999998 131.89999999999992 114.39999999999999 C 132.5999999999999 116.6 132.0999999999999 116.39999999999999 131.49999999999991 116.3 C 130.89999999999992 116.1 130.29999999999993 116 130.79999999999993 118.2 C 131.49999999999991 117.9 132.19999999999993 118.60000000000001 132.79999999999993 119.8 C 129.99999999999991 120.7 127.19999999999993 123.2 124.69999999999993 125.8 C 124.09999999999994 126.39999999999999 123.49999999999993 127 122.79999999999993 127.6 C 122.19999999999993 128.2 121.59999999999992 128.7 120.99999999999993 129.2 C 119.79999999999993 130.1 118.59999999999992 130.79999999999998 117.39999999999993 130.89999999999998 C 117.59999999999994 133.39999999999998 116.89999999999993 134.09999999999997 115.99999999999993 134.79999999999998 C 115.59999999999992 135.1 115.09999999999992 135.39999999999998 114.59999999999992 135.79999999999998 C 114.19999999999992 136.2 113.79999999999993 136.79999999999998 113.59999999999992 137.7 C 111.89999999999992 133.7 111.09999999999992 135.5 111.09999999999992 136.6 C 111.59999999999992 136.5 112.19999999999992 136.4 112.89999999999992 138.1 C 112.69999999999992 140.29999999999998 111.39999999999992 140.5 109.99999999999991 140.5 C 108.59999999999991 140.4 106.99999999999991 140 106.29999999999991 140.6 C 105.49999999999991 141.29999999999998 106.59999999999991 146.29999999999998 105.09999999999991 146.29999999999998 C 103.3999999999999 146.29999999999998 102.3999999999999 147.39999999999998 101.49999999999991 148.7 C 100.59999999999991 150 99.89999999999992 151.6 98.79999999999991 152.89999999999998 C 97.19999999999992 154.79999999999998 95.3999999999999 156.49999999999997 93.59999999999991 158.2 C 91.6999999999999 160 89.6999999999999 161.6 87.49999999999991 163.29999999999998 C 83.19999999999992 166.7 78.59999999999991 169.99999999999997 73.89999999999992 173.2 L 70.39999999999992 175.6 L 66.99999999999991 178 C 64.69999999999992 179.6 62.599999999999916 181.2 60.499999999999915 182.8 C 59.499999999999915 183.60000000000002 58.499999999999915 184.4 57.499999999999915 185.20000000000002 C 56.599999999999916 186.00000000000003 55.599999999999916 186.8 54.69999999999992 187.60000000000002 C 52.999999999999915 189.20000000000002 51.39999999999992 190.8 50.099999999999916 192.50000000000003 C 48.499999999999915 191.90000000000003 46.79999999999992 192.10000000000002 45.19999999999992 192.70000000000002 C 43.599999999999916 193.3 41.999999999999915 194.3 40.499999999999915 195.50000000000003 C 38.999999999999915 196.60000000000002 37.599999999999916 197.80000000000004 36.39999999999991 198.70000000000002 C 35.19999999999991 199.60000000000002 34.19999999999991 200.20000000000002 33.599999999999916 200.3 C 31.699999999999918 200.4 32.39999999999991 203 29.299999999999915 204.4 C 23.799999999999915 206.8 19.699999999999918 209.1 15.099999999999916 203.8 C 14.099999999999916 205.5 12.599999999999916 206.60000000000002 10.999999999999917 207.3 C 9.399999999999917 208 7.599999999999916 208.3 5.899999999999917 208.5 C 4.9999999999999165 208.6 4.199999999999917 208.7 3.399999999999917 208.9 C 2.599999999999917 209 1.7999999999999168 209.20000000000002 1.1999999999999167 209.4 C -0.20000000000008322 209.9 -1.3000000000000833 210.6 -1.9000000000000834 211.9 C -0.8000000000000833 212.3 0.3999999999999164 211.9 1.2999999999999168 213.3 C -8.326672684688674e-14 213.60000000000002 -1.2000000000000832 213.9 -2.500000000000083 214.20000000000002 L -3.500000000000083 210.00000000000003 C -5.0000000000000835 210.60000000000002 -6.5000000000000835 210.90000000000003 -8.000000000000083 211.10000000000002 C -9.500000000000083 211.3 -11.000000000000083 211.40000000000003 -12.400000000000084 211.50000000000003 C -13.800000000000084 211.60000000000002 -15.200000000000085 211.90000000000003 -16.600000000000083 212.30000000000004 C -18.00000000000008 212.70000000000005 -19.300000000000082 213.40000000000003 -20.50000000000008 214.30000000000004 C -19.90000000000008 214.50000000000003 -18.90000000000008 215.80000000000004 -19.600000000000083 216.30000000000004 C -21.300000000000082 216.20000000000005 -23.70000000000008 218.10000000000005 -24.300000000000082 214.80000000000004 C -23.100000000000083 213.40000000000003 -21.20000000000008 217.70000000000005 -21.00000000000008 214.30000000000004 C -22.300000000000082 213.60000000000005 -23.40000000000008 212.40000000000003 -25.10000000000008 212.70000000000005 C -25.000000000000078 214.30000000000004 -24.40000000000008 216.60000000000005 -25.10000000000008 217.00000000000006 C -28.70000000000008 216.30000000000007 -31.90000000000008 216.70000000000005 -34.90000000000008 217.40000000000006 C -36.300000000000075 217.70000000000007 -37.700000000000074 218.10000000000005 -39.10000000000008 218.60000000000005 C -40.40000000000008 219.00000000000006 -41.70000000000008 219.30000000000004 -42.80000000000008 219.50000000000006 C -42.60000000000008 218.80000000000007 -41.500000000000085 215.30000000000007 -42.900000000000084 215.20000000000005 C -45.70000000000008 219.00000000000006 -50.10000000000009 218.00000000000006 -54.20000000000009 216.70000000000005 C -58.40000000000009 215.50000000000006 -62.30000000000009 214.00000000000006 -65.20000000000009 217.40000000000003 C -65.30000000000008 214.60000000000002 -66.6000000000001 213.70000000000005 -68.1000000000001 214.00000000000003 C -69.6000000000001 214.20000000000002 -71.3000000000001 215.60000000000002 -72.3000000000001 217.40000000000003 C -71.90000000000009 215.10000000000002 -72.3000000000001 213.80000000000004 -73.2000000000001 213.10000000000002 C -74.10000000000011 212.40000000000003 -75.5000000000001 212.20000000000002 -77.0000000000001 212.10000000000002 C -78.4000000000001 212.10000000000002 -76.7000000000001 215.10000000000002 -79.0000000000001 214.90000000000003 C -79.8000000000001 214.20000000000005 -80.6000000000001 213.50000000000003 -81.4000000000001 212.80000000000004 C -82.2000000000001 212.20000000000005 -83.0000000000001 211.70000000000005 -83.9000000000001 211.30000000000004 C -85.60000000000011 210.40000000000003 -87.4000000000001 209.80000000000004 -89.30000000000011 209.10000000000005 C -91.20000000000012 208.40000000000006 -93.20000000000012 207.80000000000004 -95.20000000000012 206.90000000000006 C -97.30000000000011 206.00000000000006 -99.40000000000012 204.90000000000006 -101.60000000000012 203.30000000000007 C -103.50000000000013 205.10000000000008 -101.80000000000013 207.60000000000008 -103.50000000000013 207.20000000000007 C -105.50000000000013 207.50000000000009 -107.40000000000013 206.30000000000007 -109.00000000000013 204.80000000000007 C -110.60000000000012 203.30000000000007 -111.80000000000013 201.60000000000008 -112.70000000000013 200.90000000000006 C -111.80000000000013 201.70000000000007 -113.90000000000013 202.40000000000006 -113.30000000000013 200.60000000000005 C -111.70000000000013 199.00000000000006 -111.30000000000013 200.00000000000006 -110.60000000000012 201.00000000000006 C -110.00000000000013 202.00000000000006 -109.20000000000012 203.10000000000005 -107.20000000000012 201.70000000000005 C -108.00000000000011 201.20000000000005 -109.40000000000012 199.40000000000003 -110.90000000000012 198.00000000000006 C -112.40000000000012 196.60000000000005 -114.00000000000011 195.60000000000005 -115.40000000000012 196.70000000000005 C -116.30000000000013 198.20000000000005 -115.20000000000012 198.00000000000006 -114.30000000000013 197.90000000000003 C -113.40000000000012 197.80000000000004 -112.70000000000013 197.80000000000004 -114.40000000000012 199.90000000000003 C -115.30000000000013 199.70000000000005 -116.00000000000011 199.50000000000003 -116.60000000000012 199.20000000000005 C -117.20000000000012 198.90000000000003 -117.70000000000012 198.40000000000003 -118.20000000000012 197.90000000000003 C -118.70000000000012 197.40000000000003 -119.30000000000011 196.80000000000004 -120.00000000000011 196.20000000000005 C -120.90000000000012 195.40000000000003 -121.90000000000012 194.60000000000005 -122.90000000000012 194.00000000000006 C -121.90000000000012 193.00000000000006 -120.90000000000012 192.90000000000006 -119.80000000000013 191.00000000000006 C -121.50000000000013 192.20000000000005 -123.00000000000013 192.20000000000005 -124.60000000000012 192.10000000000005 C -126.20000000000012 191.90000000000006 -128.10000000000014 191.60000000000005 -130.60000000000014 192.00000000000006 C -130.00000000000014 193.30000000000007 -129.20000000000013 194.40000000000006 -128.40000000000015 195.40000000000006 C -128.00000000000014 195.90000000000006 -127.60000000000015 196.40000000000006 -127.20000000000014 196.90000000000006 C -126.80000000000014 197.40000000000006 -126.30000000000014 197.80000000000007 -125.90000000000015 198.30000000000007 C -125.00000000000014 199.20000000000007 -124.00000000000014 200.10000000000008 -123.00000000000014 200.90000000000006 C -122.00000000000014 201.70000000000007 -121.00000000000014 202.50000000000006 -119.90000000000015 203.30000000000007 C -115.70000000000014 206.40000000000006 -111.20000000000014 209.30000000000007 -106.80000000000015 214.10000000000008 C -112.90000000000015 211.00000000000009 -117.50000000000016 208.30000000000007 -121.50000000000016 205.4000000000001 C -122.50000000000016 204.7000000000001 -123.50000000000016 203.9000000000001 -124.40000000000016 203.2000000000001 C -125.30000000000017 202.4000000000001 -126.20000000000016 201.6000000000001 -127.10000000000016 200.7000000000001 C -128.90000000000018 199.0000000000001 -130.50000000000017 197.0000000000001 -132.20000000000016 194.8000000000001 C -133.10000000000016 195.7000000000001 -134.10000000000016 197.2000000000001 -134.80000000000015 196.8000000000001 C -133.60000000000016 194.8000000000001 -134.40000000000015 193.2000000000001 -135.70000000000016 192.00000000000009 C -137.00000000000017 190.8000000000001 -138.80000000000015 189.8000000000001 -140.00000000000017 189.10000000000008 C -137.20000000000016 192.4000000000001 -140.40000000000018 189.50000000000009 -142.00000000000017 190.10000000000008 C -141.10000000000016 190.4000000000001 -140.90000000000018 192.10000000000008 -140.90000000000018 193.4000000000001 C -141.00000000000017 194.7000000000001 -141.30000000000018 195.7000000000001 -141.60000000000016 195.00000000000009 C -140.90000000000018 196.70000000000007 -139.20000000000016 198.00000000000009 -137.60000000000016 199.3000000000001 C -135.90000000000018 200.6000000000001 -134.20000000000016 201.7000000000001 -133.70000000000016 203.3000000000001 C -133.50000000000017 204.00000000000009 -135.90000000000015 205.3000000000001 -135.10000000000016 206.3000000000001 C -135.20000000000016 206.2000000000001 -133.10000000000016 203.8000000000001 -132.50000000000017 204.2000000000001 C -131.10000000000016 205.3000000000001 -131.70000000000016 208.4000000000001 -130.30000000000018 209.9000000000001 C -128.90000000000018 211.3000000000001 -125.70000000000019 211.60000000000008 -124.20000000000019 212.8000000000001 C -116.70000000000019 218.4000000000001 -108.30000000000018 224.50000000000009 -98.70000000000019 229.6000000000001 C -89.00000000000018 234.8000000000001 -78.6000000000002 238.8000000000001 -68.80000000000018 240.90000000000012 C -62.20000000000018 242.30000000000013 -55.70000000000018 243.0000000000001 -49.40000000000018 243.40000000000012 C -43.100000000000186 243.70000000000013 -37.000000000000185 243.6000000000001 -31.100000000000183 243.5000000000001 C -25.20000000000018 243.40000000000012 -19.600000000000183 243.1000000000001 -14.200000000000184 243.2000000000001 C -8.800000000000184 243.3000000000001 -3.4000000000001833 243.5000000000001 2.0999999999998167 244.2000000000001 C -0.20000000000018314 244.3000000000001 -2.4000000000001833 244.4000000000001 -4.700000000000183 244.7000000000001 C -7.000000000000183 244.9000000000001 -9.400000000000183 245.3000000000001 -11.800000000000182 245.7000000000001 C -16.600000000000183 246.5000000000001 -21.800000000000182 247.4000000000001 -27.20000000000018 248.1000000000001 C -32.60000000000018 248.8000000000001 -38.400000000000176 249.2000000000001 -44.30000000000018 249.0000000000001 C -50.20000000000018 248.80000000000013 -56.20000000000018 247.90000000000012 -61.90000000000018 246.1000000000001 C -63.30000000000018 249.6000000000001 -64.90000000000018 245.2000000000001 -66.00000000000018 248.90000000000012 C -59.90000000000018 249.5000000000001 -52.30000000000018 250.1000000000001 -45.20000000000019 250.5000000000001 C -38.000000000000185 250.90000000000012 -31.100000000000186 251.2000000000001 -26.00000000000019 252.0000000000001 C -25.200000000000188 254.90000000000012 -29.200000000000188 251.6000000000001 -28.50000000000019 254.40000000000012 C -26.900000000000187 255.0000000000001 -23.50000000000019 251.90000000000012 -23.50000000000019 256.10000000000014 C -34.80000000000019 256.8000000000001 -47.90000000000019 256.40000000000015 -61.500000000000185 254.70000000000013 C -68.40000000000019 253.90000000000012 -75.20000000000019 252.70000000000013 -82.00000000000018 251.30000000000013 C -83.70000000000019 251.0000000000001 -85.40000000000019 250.60000000000014 -87.00000000000018 250.20000000000013 C -88.70000000000019 249.80000000000013 -90.30000000000018 249.40000000000012 -92.00000000000018 249.00000000000014 L -94.40000000000019 248.40000000000015 L -96.8000000000002 247.80000000000015 C -98.40000000000019 247.40000000000015 -100.0000000000002 247.00000000000014 -101.5000000000002 246.60000000000016 C -99.4000000000002 248.20000000000016 -97.2000000000002 249.50000000000017 -94.8000000000002 250.70000000000016 C -92.5000000000002 251.90000000000015 -90.0000000000002 253.00000000000017 -87.40000000000019 253.90000000000015 C -84.8000000000002 254.90000000000015 -82.00000000000018 255.70000000000016 -79.00000000000018 256.70000000000016 L -74.40000000000019 258.00000000000017 C -72.8000000000002 258.50000000000017 -71.20000000000019 258.90000000000015 -69.50000000000018 259.3000000000002 C -62.30000000000018 261.3000000000002 -54.600000000000186 262.4000000000002 -47.000000000000185 263.00000000000017 C -39.40000000000018 263.50000000000017 -32.000000000000185 263.40000000000015 -25.000000000000185 263.1000000000002 L -22.400000000000183 263.00000000000017 L -19.900000000000183 262.8000000000002 C -18.200000000000184 262.70000000000016 -16.600000000000183 262.6000000000002 -15.000000000000183 262.50000000000017 L -5.700000000000182 261.8000000000002 C 0.29999999999981775 261.4000000000002 5.699999999999818 260.9000000000002 10.599999999999818 261.00000000000017 C 11.89999999999982 259.40000000000015 16.399999999999817 257.8000000000002 21.099999999999817 256.70000000000016 C 23.399999999999817 256.10000000000014 25.799999999999816 255.70000000000016 27.899999999999817 255.50000000000017 C 29.99999999999982 255.30000000000018 31.799999999999816 255.40000000000018 32.89999999999982 255.80000000000018 C 39.69999999999982 253.50000000000017 46.79999999999982 250.7000000000002 53.89999999999982 247.50000000000017 C 60.99999999999982 244.30000000000018 68.19999999999982 240.80000000000018 75.09999999999982 237.30000000000018 C 78.59999999999982 235.50000000000017 81.89999999999982 233.7000000000002 85.19999999999982 232.00000000000017 C 88.29999999999981 230.30000000000018 91.49999999999982 228.70000000000016 94.29999999999981 227.30000000000018 L 96.49999999999982 226.2000000000002 L 98.59999999999981 225.2000000000002 C 99.8999999999998 224.6000000000002 101.29999999999981 224.0000000000002 102.59999999999981 223.40000000000018 C 103.1999999999998 223.10000000000016 103.8999999999998 222.90000000000018 104.49999999999982 222.60000000000016 C 105.09999999999981 222.30000000000015 105.69999999999982 222.10000000000016 106.39999999999982 221.90000000000018 C 107.59999999999982 221.40000000000018 108.79999999999983 221.00000000000017 109.99999999999982 220.7000000000002 C 109.79999999999981 221.1000000000002 109.09999999999981 221.30000000000018 109.69999999999982 222.2000000000002 C 111.59999999999982 221.5000000000002 113.49999999999982 220.6000000000002 115.29999999999981 219.7000000000002 C 117.09999999999981 218.7000000000002 118.79999999999981 217.6000000000002 120.3999999999998 216.40000000000018 C 121.8999999999998 215.2000000000002 123.29999999999981 213.90000000000018 124.3999999999998 212.50000000000017 C 125.4999999999998 211.10000000000016 126.29999999999981 209.70000000000016 126.79999999999981 208.10000000000016 C 124.79999999999981 206.30000000000015 123.99999999999982 210.80000000000015 121.99999999999982 208.80000000000015 C 122.69999999999982 207.90000000000015 123.39999999999982 206.80000000000015 124.39999999999982 206.00000000000014 C 124.89999999999982 205.60000000000014 125.49999999999982 205.20000000000013 126.09999999999982 205.00000000000014 C 126.79999999999983 204.70000000000013 127.59999999999982 204.60000000000014 128.39999999999984 204.60000000000014 C 129.09999999999982 205.80000000000013 128.79999999999984 206.10000000000014 129.79999999999984 207.50000000000014 L 130.99999999999983 206.60000000000014 L 132.09999999999982 205.80000000000013 L 134.39999999999984 204.20000000000013 L 136.49999999999983 202.80000000000013 C 137.19999999999982 202.30000000000013 137.89999999999984 201.90000000000012 138.49999999999983 201.5000000000001 L 140.39999999999984 200.30000000000013 C 140.69999999999985 200.10000000000014 140.99999999999983 199.90000000000012 141.29999999999984 199.70000000000013 L 142.19999999999985 199.20000000000013 L 143.09999999999985 198.70000000000013 C 143.39999999999986 198.50000000000014 143.69999999999985 198.30000000000013 143.89999999999986 198.20000000000013 C 144.39999999999986 197.90000000000012 144.99999999999986 197.60000000000014 145.49999999999986 197.30000000000013 C 145.99999999999986 197.0000000000001 146.49999999999986 196.70000000000013 146.99999999999986 196.40000000000012 C 147.49999999999986 196.1000000000001 147.99999999999986 195.80000000000013 148.39999999999986 195.5000000000001 C 149.29999999999987 195.0000000000001 150.19999999999987 194.40000000000012 150.99999999999986 193.7000000000001 C 151.89999999999986 193.1000000000001 152.89999999999986 192.4000000000001 153.69999999999985 191.7000000000001 C 154.69999999999985 191.0000000000001 155.59999999999985 190.2000000000001 156.49999999999986 189.4000000000001 C 159.19999999999985 187.00000000000009 162.09999999999985 184.2000000000001 165.19999999999985 181.00000000000009 C 165.99999999999986 180.20000000000007 166.79999999999984 179.4000000000001 167.59999999999985 178.60000000000008 L 168.79999999999984 177.30000000000007 L 170.09999999999985 176.00000000000006 L 175.39999999999986 170.40000000000006 C 179.09999999999985 166.60000000000005 183.09999999999985 162.30000000000007 187.39999999999986 157.90000000000006 C 189.59999999999985 155.60000000000005 191.89999999999986 153.40000000000006 194.19999999999987 151.00000000000006 L 197.79999999999987 147.50000000000006 C 198.99999999999986 146.30000000000007 200.29999999999987 145.00000000000006 201.59999999999988 143.90000000000006 C 202.4999999999999 143.00000000000006 203.4999999999999 142.10000000000005 204.4999999999999 141.20000000000007 L 205.9999999999999 139.90000000000006 L 207.4999999999999 138.60000000000005 C 209.3999999999999 136.90000000000006 211.2999999999999 135.40000000000006 212.7999999999999 134.20000000000005 C 215.2999999999999 132.20000000000005 217.3999999999999 131.10000000000005 219.4999999999999 130.10000000000005 C 221.59999999999988 129.10000000000005 223.59999999999988 128.20000000000005 225.9999999999999 126.70000000000005 C 229.09999999999988 124.80000000000004 232.59999999999988 121.90000000000005 236.7999999999999 119.50000000000004 C 238.8999999999999 118.30000000000004 241.1999999999999 117.20000000000005 243.6999999999999 116.50000000000004 C 244.8999999999999 116.10000000000004 246.1999999999999 115.80000000000004 247.3999999999999 115.70000000000005 C 248.59999999999988 115.60000000000005 249.9999999999999 115.50000000000004 251.1999999999999 115.50000000000004 C 253.3999999999999 115.60000000000004 255.7999999999999 116.30000000000004 258.2999999999999 117.40000000000005 C 260.7999999999999 118.50000000000004 263.2999999999999 120.10000000000005 265.6999999999999 122.00000000000004 C 268.09999999999985 123.90000000000005 270.39999999999986 126.10000000000004 272.59999999999985 128.30000000000004 C 273.09999999999985 128.80000000000004 273.59999999999985 129.40000000000003 274.1999999999999 129.90000000000003 C 274.6999999999999 130.40000000000003 275.2999999999999 131.00000000000003 275.7999999999999 131.50000000000003 C 276.2999999999999 132.00000000000003 276.7999999999999 132.50000000000003 277.2999999999999 133.00000000000003 C 277.5999999999999 133.20000000000002 277.7999999999999 133.50000000000003 278.0999999999999 133.70000000000002 C 278.2999999999999 133.9 278.5999999999999 134.10000000000002 278.8999999999999 134.4 C 279.99999999999994 135.3 281.0999999999999 136.20000000000002 282.2999999999999 136.9 C 283.3999999999999 137.70000000000002 284.4999999999999 138.3 285.5999999999999 138.9 C 287.7999999999999 140.1 290.0999999999999 140.8 292.3999999999999 141 C 294.69999999999993 141.2 297.0999999999999 141 299.3999999999999 140.2 C 301.7999999999999 139.39999999999998 304.0999999999999 138.2 306.3999999999999 136.5 C 308.69999999999993 134.9 310.7999999999999 132.8 312.7999999999999 130.6 C 313.7999999999999 129.5 314.6999999999999 128.4 315.6999999999999 127.19999999999999 C 316.59999999999985 125.99999999999999 317.4999999999999 124.89999999999999 318.2999999999999 123.69999999999999 L 320.6999999999999 120.39999999999999 C 321.39999999999986 119.39999999999999 322.1999999999999 118.49999999999999 322.89999999999986 117.49999999999999 C 324.39999999999986 115.79999999999998 325.6999999999999 114.39999999999999 327.1999999999999 113.79999999999998 C 328.6 105.9 328.6 99 327.9 92.5" stroke-linecap="round" />
</g>
</svg>